<?xml version="1.0" standalone="no"?>
<!DOCTYPE svg PUBLIC "-//W3C//DTD SVG 20010904//EN"
 "http://www.w3.org/TR/2001/REC-SVG-20010904/DTD/svg10.dtd">
<svg version="1.0" xmlns="http://www.w3.org/2000/svg"
 width="225.000000pt" height="225.000000pt" viewBox="0 0 225.000000 225.000000"
 preserveAspectRatio="xMidYMid meet">
<metadata>
Created by potrace 1.14, written by Peter Selinger 2001-2017
</metadata>
<g transform="translate(0.000000,225.000000) scale(0.100000,-0.100000)"
fill="#000000" stroke="none">
<path d="M1113 1524 c-24 -26 -43 -51 -43 -55 0 -5 -6 -9 -14 -9 -8 0 -40 -30
-72 -66 -32 -36 -67 -70 -78 -76 -12 -6 3 14 33 45 60 62 60 69 5 132 -25 28
-38 37 -48 30 -7 -6 -32 -22 -54 -37 -23 -15 -56 -44 -74 -65 -18 -20 -74 -77
-124 -127 -92 -92 -134 -154 -111 -161 43 -13 165 -25 309 -29 152 -5 168 -4
178 12 9 16 11 16 24 0 7 -10 25 -18 38 -18 20 0 27 6 31 28 6 29 49 82 67 82
14 0 40 -61 40 -95 0 -19 -5 -25 -22 -26 -13 0 2 -8 32 -17 30 -8 58 -20 62
-26 8 -12 38 11 35 26 -3 14 52 30 81 23 12 -3 22 -2 22 2 -1 23 -91 151 -120
171 -41 27 -102 29 -150 3 -31 -16 -83 -73 -109 -119 -5 -9 -13 -14 -16 -10
-10 10 27 67 72 111 65 62 145 74 209 31 49 -33 57 -44 95 -124 18 -36 33 -67
35 -69 4 -4 254 49 263 55 2 2 -37 45 -88 96 -50 51 -104 112 -121 135 -17 23
-52 53 -77 68 -43 24 -47 24 -65 9 -25 -24 -23 -35 17 -74 19 -19 35 -29 35
-23 0 7 -7 19 -16 27 -8 9 -12 20 -9 26 4 6 1 9 -7 8 -7 -2 -13 3 -13 11 0 27
20 21 43 -13 19 -28 21 -38 12 -55 -6 -12 -8 -27 -4 -33 5 -8 10 -5 15 8 6 16
8 16 8 2 1 -9 -3 -19 -8 -22 -10 -7 -76 69 -146 167 -71 102 -107 110 -172 41z
m87 -1 c0 -3 -7 -14 -16 -24 -20 -22 -9 -46 12 -28 20 16 17 2 -7 -37 -11 -19
-27 -34 -34 -34 -8 0 -17 -5 -21 -12 -5 -7 -3 -8 7 -3 12 8 12 6 0 -8 -7 -9
-19 -17 -25 -17 -6 0 -20 -14 -30 -31 -12 -20 -21 -27 -25 -20 -5 7 -12 2 -21
-14 -15 -28 -36 -35 -26 -9 6 15 4 15 -11 3 -15 -12 -16 -12 -8 1 4 8 13 22
19 31 6 8 -4 0 -22 -20 -39 -42 -53 -36 -17 8 16 18 22 31 14 31 -7 0 2 16 21
35 36 38 66 49 34 14 -10 -12 -14 -20 -7 -18 7 2 32 33 56 69 24 36 54 71 68
77 27 14 39 16 39 6z m-320 -87 c-13 -17 -17 -25 -9 -18 16 14 49 16 49 2 0
-19 -57 -73 -78 -75 -12 -1 -31 -10 -43 -21 -12 -10 -19 -13 -15 -6 13 22 -6
13 -26 -13 -11 -14 -24 -25 -30 -25 -6 0 -6 6 2 15 7 8 9 15 5 15 -4 0 -2 6 4
14 8 9 8 15 1 18 -14 4 26 67 48 75 9 3 25 13 35 21 31 27 18 -1 -20 -43 -36
-38 -36 -38 10 5 26 24 47 48 47 54 0 5 8 18 18 29 16 18 17 18 20 2 2 -10 -6
-32 -18 -49z m-160 -110 c0 -2 -8 -10 -17 -17 -16 -13 -17 -12 -4 4 13 16 21
21 21 13z m754 -45 c-7 -7 -34 21 -28 31 3 5 12 1 19 -9 7 -10 12 -20 9 -22z
m-414 5 c0 -3 -4 -8 -10 -11 -5 -3 -10 -1 -10 4 0 6 5 11 10 11 6 0 10 -2 10
-4z m200 -80 c0 -11 0 -11 -29 34 l-23 35 26 -30 c14 -16 26 -34 26 -39z m37
-118 c-3 -8 -6 -5 -6 6 -1 11 2 17 5 13 3 -3 4 -12 1 -19z"/>
<path d="M1120 1450 c-12 -16 -19 -30 -16 -30 2 0 14 14 26 30 12 17 19 30 16
30 -2 0 -14 -13 -26 -30z"/>
<path d="M1128 1093 c6 -2 18 -2 25 0 6 3 1 5 -13 5 -14 0 -19 -2 -12 -5z"/>
<path d="M390 926 l0 -96 49 0 c64 0 79 6 96 41 21 40 18 84 -7 114 -18 20
-35 27 -80 32 l-58 6 0 -97z m102 37 c36 -32 15 -93 -32 -93 -30 0 -30 1 -30
55 0 50 2 55 22 55 12 0 30 -7 40 -17z"/>
<path d="M570 925 c0 -88 1 -95 20 -95 19 0 20 7 20 95 0 88 -1 95 -20 95 -19
0 -20 -7 -20 -95z"/>
<path d="M639 1013 c0 -5 -1 -46 -1 -93 -1 -79 1 -85 21 -88 18 -3 21 2 22 35
l0 38 16 -37 c20 -50 45 -50 66 0 l15 37 1 -37 c1 -31 5 -38 21 -38 20 0 21 5
18 92 -2 76 -6 93 -19 96 -12 2 -23 -14 -39 -58 -12 -33 -25 -60 -29 -60 -3 0
-18 27 -33 60 -16 37 -32 60 -42 60 -9 0 -16 -3 -17 -7z"/>
<path d="M870 938 c-18 -46 -35 -89 -37 -95 -3 -8 4 -13 20 -13 16 0 26 7 30
20 4 15 14 20 36 20 20 0 34 -7 41 -20 9 -16 50 -30 50 -16 0 2 -15 44 -34 93
-47 121 -63 123 -106 11z m63 -8 c4 -15 0 -20 -13 -20 -13 0 -17 5 -13 20 3
11 9 20 13 20 4 0 10 -9 13 -20z"/>
<path d="M1097 1014 c-4 -4 -7 -47 -7 -96 0 -87 0 -88 25 -88 23 0 25 4 25 41
l0 40 38 -3 c35 -3 37 -5 40 -40 3 -30 7 -38 23 -38 18 0 20 6 17 92 -3 79 -6
93 -20 96 -15 3 -18 -4 -18 -38 l0 -41 -42 3 c-41 3 -42 4 -43 38 0 33 -20 51
-38 34z"/>
<path d="M1329 993 c-31 -77 -59 -154 -59 -158 0 -3 9 -5 21 -5 12 0 23 8 26
20 4 15 14 20 40 20 26 0 36 -5 40 -20 4 -13 14 -20 30 -20 16 0 23 4 20 13
-3 6 -20 49 -38 95 -35 90 -60 107 -80 55z m36 -81 c-22 -5 -27 1 -19 23 7 17
8 17 21 -1 12 -17 12 -19 -2 -22z"/>
<path d="M1482 1004 c-37 -26 -26 -74 25 -102 22 -13 7 -32 -23 -32 -37 0 -28
-34 9 -38 65 -8 93 74 37 106 -35 20 -34 38 2 34 32 -3 45 24 18 38 -26 14
-42 13 -68 -6z"/>
<path d="M1625 978 c-9 -24 -26 -67 -36 -95 l-18 -53 23 0 c15 0 26 7 29 20 4
15 14 20 36 20 20 0 34 -7 41 -20 14 -26 54 -28 46 -2 -55 170 -89 208 -121
130z m48 -48 c4 -15 0 -20 -13 -20 -13 0 -17 5 -13 20 3 11 9 20 13 20 4 0 10
-9 13 -20z"/>
<path d="M1791 994 c-26 -22 -31 -33 -31 -69 0 -60 32 -97 84 -97 71 0 115 75
82 140 -30 58 -85 68 -135 26z m97 -47 c12 -24 11 -31 -2 -53 -30 -44 -86 -26
-86 27 0 60 63 78 88 26z"/>
<path d="M1188 722 c-4 -14 -14 -22 -27 -22 -18 0 -21 -6 -19 -37 1 -37 1 -37
5 -5 3 24 9 32 24 32 21 0 34 21 27 42 -3 7 -7 2 -10 -10z"/>
<path d="M1780 725 c0 -8 -7 -15 -15 -15 -8 0 -15 -4 -15 -9 0 -5 9 -7 20 -4
17 4 30 43 15 43 -3 0 -5 -7 -5 -15z"/>
<path d="M790 710 c-6 -11 -8 -20 -6 -20 3 0 10 9 16 20 6 11 8 20 6 20 -3 0
-10 -9 -16 -20z"/>
<path d="M1446 715 c-3 -9 -5 -29 -5 -43 1 -20 3 -17 9 13 8 43 7 57 -4 30z"/>
<path d="M1561 714 c0 -11 3 -14 6 -6 3 7 2 16 -1 19 -3 4 -6 -2 -5 -13z"/>
<path d="M1690 715 c0 -9 -9 -15 -25 -15 -24 0 -25 -3 -25 -59 0 -54 -2 -60
-22 -64 -20 -5 -20 -5 2 -4 23 2 25 6 28 60 3 53 5 57 27 57 18 0 25 5 25 20
0 11 -2 20 -5 20 -3 0 -5 -7 -5 -15z"/>
<path d="M545 699 c-11 -16 -2 -17 25 -2 24 12 24 13 3 13 -12 0 -25 -5 -28
-11z"/>
<path d="M722 698 c-7 -7 -12 -19 -12 -27 1 -13 3 -12 11 2 6 10 20 22 32 27
21 8 21 9 2 9 -12 1 -26 -4 -33 -11z"/>
<path d="M860 691 c-16 -30 -12 -38 6 -12 11 15 23 21 35 18 11 -3 17 -1 13 4
-9 16 -43 10 -54 -10z"/>
<path d="M1262 698 c-7 -7 -12 -21 -11 -32 0 -20 1 -20 9 1 5 12 17 26 27 32
14 8 15 10 3 11 -9 0 -21 -5 -28 -12z"/>
<path d="M649 680 c-3 -21 -10 -25 -44 -28 -22 -2 -44 -7 -48 -12 -11 -10 85
0 96 10 5 4 7 18 5 31 l-4 24 -5 -25z"/>
<path d="M1370 651 c0 -31 -34 -63 -76 -71 l-39 -8 38 -1 c29 -1 44 5 62 25
22 23 35 74 20 74 -3 0 -5 -9 -5 -19z"/>
<path d="M970 637 c0 -23 -43 -55 -80 -60 l-35 -4 38 -1 c28 -2 44 4 62 23 22
21 34 55 20 55 -3 0 -5 -6 -5 -13z"/>
<path d="M1792 615 c-7 -14 -25 -28 -44 -34 -32 -10 -32 -10 -4 -8 28 2 77 49
64 62 -2 3 -10 -6 -16 -20z"/>
<path d="M1188 603 c-4 -15 -15 -23 -39 -26 l-34 -4 38 -1 c38 -2 54 12 45 40
-3 7 -7 3 -10 -9z"/>
<path d="M642 598 c-7 -7 -33 -15 -60 -19 l-47 -6 41 -2 c28 -1 49 5 65 19 13
10 22 19 19 20 -4 0 -11 -5 -18 -12z"/>
<path d="M1497 594 c-3 -4 -21 -10 -39 -14 -29 -7 -30 -8 -7 -9 14 -1 34 6 45
14 10 8 16 15 13 15 -3 0 -8 -3 -12 -6z"/>
<path d="M1555 591 c-6 -5 -19 -11 -30 -14 -16 -4 -14 -5 6 -6 16 -1 29 5 33
14 6 17 4 19 -9 6z"/>
<path d="M750 580 l-35 -7 37 -2 c20 0 40 4 43 9 7 11 7 11 -45 0z"/>
</g>
</svg>
